<svg width="25" height="24" viewBox="0 0 25 24" fill="none" xmlns="http://www.w3.org/2000/svg">
<path d="M24.1767 1.49084C24.2297 1.3584 24.2427 1.21331 24.214 1.07356C24.1853 0.933809 24.1163 0.805547 24.0154 0.704671C23.9145 0.603796 23.7863 0.534745 23.6465 0.506077C23.5068 0.47741 23.3617 0.490388 23.2292 0.543402L2.02556 9.02516H2.02411L1.36527 9.28753C1.24049 9.3373 1.13189 9.4206 1.05147 9.52822C0.971059 9.63584 0.921956 9.76359 0.909589 9.89737C0.897222 10.0311 0.922072 10.1657 0.981395 10.2863C1.04072 10.4068 1.1322 10.5086 1.24575 10.5804L1.84336 10.9594L1.84482 10.9623L9.12552 15.5946L13.7578 22.8752L13.7607 22.8782L14.1397 23.4758C14.2117 23.5889 14.3135 23.6799 14.434 23.7389C14.5544 23.7978 14.6888 23.8224 14.8223 23.8099C14.9559 23.7974 15.0833 23.7483 15.1907 23.668C15.2981 23.5877 15.3813 23.4793 15.4311 23.3548L24.1767 1.49084ZM21.5049 4.2457L10.5817 15.1689L10.2683 14.6763C10.2109 14.5859 10.1342 14.5092 10.0438 14.4518L9.55114 14.1384L20.4744 3.21518L22.1914 2.52865L21.5064 4.2457H21.5049Z" fill="white"/>
</svg>
