<svg width="33" height="33" viewBox="0 0 33 33" fill="none" xmlns="http://www.w3.org/2000/svg">
<path d="M17.8942 0.288086V2.49775C20.0797 2.49775 22.1272 3.05017 24.0367 4.155C25.8541 5.23682 27.3035 6.68691 28.3848 8.50529C29.489 10.4157 30.0412 12.4643 30.0412 14.6509H32.2497C32.2497 12.05 31.5941 9.63314 30.2827 7.40045C29.0174 5.23682 27.3035 3.52203 25.141 2.25607C22.9094 0.944081 20.4938 0.288086 17.8942 0.288086ZM6.47185 3.60259C5.8507 3.60259 5.31007 3.79823 4.84995 4.18953L1.29558 7.81476L1.3991 7.74571C0.823961 8.22908 0.444367 8.82753 0.260322 9.54107C0.099282 10.2546 0.145293 10.9451 0.398356 11.6126C1.04251 13.408 1.90523 15.2494 2.98649 17.1368C4.50487 19.7378 6.31081 22.074 8.40433 24.1456C11.7632 27.5291 15.9387 30.1992 20.9309 32.1556H20.9654C21.6326 32.3858 22.2998 32.4318 22.9669 32.2937C23.6571 32.1556 24.2667 31.8564 24.7959 31.3961L28.2812 27.9089C28.7413 27.4486 28.9714 26.8847 28.9714 26.2171C28.9714 25.5266 28.7413 24.9512 28.2812 24.4908L23.7606 19.9334C23.3005 19.4731 22.7254 19.2429 22.0352 19.2429C21.345 19.2429 20.7699 19.4731 20.3098 19.9334L18.1357 22.1431C16.3873 21.3145 14.8689 20.2902 13.5806 19.0703C12.2923 17.8273 11.2685 16.3197 10.5093 14.5473L12.7179 12.3377C13.201 11.8313 13.4426 11.2328 13.4426 10.5423C13.4426 9.82878 13.1665 9.25335 12.6144 8.81602L12.7179 8.9196L8.09375 4.18953C7.63364 3.79823 7.09301 3.60259 6.47185 3.60259ZM17.8942 4.70742V6.91709C19.2975 6.91709 20.5858 7.26235 21.7591 7.95287C22.9554 8.64339 23.8987 9.5871 24.5888 10.784C25.279 11.9579 25.6241 13.2469 25.6241 14.6509H27.8326C27.8326 12.8556 27.384 11.1868 26.4868 9.64465C25.5896 8.14852 24.3933 6.95161 22.8979 6.05394C21.3565 5.15626 19.6886 4.70742 17.8942 4.70742ZM6.47185 5.81225C6.54087 5.81225 6.62139 5.84678 6.71341 5.91583L11.234 10.5423C11.257 10.6344 11.234 10.715 11.165 10.784L7.8867 14.0295L8.12826 14.72L8.57687 15.6867C8.94496 16.4693 9.37057 17.2289 9.85369 17.9654C10.5209 19.0012 11.257 19.8874 12.0622 20.6239C13.1435 21.6827 14.4433 22.6495 15.9617 23.5241C16.7209 23.9614 17.365 24.2837 17.8942 24.4908L18.5843 24.8016L21.9317 21.4526C21.9777 21.4065 22.0122 21.3835 22.0352 21.3835C22.0582 21.3835 22.0927 21.4065 22.1387 21.4526L26.7974 26.1136C26.8434 26.1596 26.8664 26.1941 26.8664 26.2171C26.8664 26.2171 26.8434 26.2402 26.7974 26.2862L23.3465 29.7043C22.8404 30.1416 22.2883 30.2567 21.6901 30.0495C16.997 28.2312 13.086 25.7453 9.95721 22.5919C8.02474 20.6585 6.33382 18.4603 4.88446 15.9974C3.84921 14.2251 3.04401 12.5103 2.46887 10.8531V10.8185C2.37684 10.6114 2.36534 10.3697 2.43436 10.0935C2.50338 9.79426 2.62991 9.56409 2.81395 9.40296L6.23029 5.91583C6.29931 5.84678 6.37983 5.81225 6.47185 5.81225ZM17.8942 9.12675V11.3364C18.8144 11.3364 19.5966 11.6587 20.2408 12.3032C20.8849 12.9476 21.207 13.7302 21.207 14.6509H23.4155C23.4155 13.6612 23.1625 12.7405 22.6563 11.8888C22.1732 11.0372 21.5061 10.3697 20.6549 9.88633C19.8036 9.37995 18.8834 9.12675 17.8942 9.12675Z" fill="black"/>
</svg>
