<?xml version="1.0" standalone="no"?>
<!DOCTYPE svg PUBLIC "-//W3C//DTD SVG 20010904//EN"
 "http://www.w3.org/TR/2001/REC-SVG-20010904/DTD/svg10.dtd">
<svg version="1.0" xmlns="http://www.w3.org/2000/svg"
 width="437.000000pt" height="116.000000pt" viewBox="0 0 437.000000 116.000000"
 preserveAspectRatio="xMidYMid meet">

<g transform="translate(0.000000,116.000000) scale(0.100000,-0.100000)"
fill="#000000" stroke="none">
<path d="M807 1063 c-4 -3 -7 -115 -7 -249 l0 -242 -72 -44 c-75 -44 -91 -70
-56 -91 12 -8 32 -2 87 30 l70 41 33 -19 c18 -10 59 -33 91 -50 31 -18 57 -35
57 -39 0 -8 -165 -100 -180 -100 -11 0 -46 19 -175 94 l-40 23 -3 130 -3 130
56 29 c52 28 55 31 55 67 l0 39 -52 -30 c-124 -70 -115 -62 -120 -117 -2 -27
-4 -101 -4 -163 1 -132 -16 -111 164 -213 l123 -71 67 40 c37 21 102 58 145
81 110 61 108 68 -48 155 l-125 70 0 109 0 108 43 -26 c23 -14 63 -37 90 -52
39 -22 47 -31 47 -55 0 -25 3 -28 35 -28 35 0 35 0 35 45 0 44 0 44 -67 83
-38 22 -90 52 -118 67 -27 15 -53 30 -56 34 -8 7 -19 118 -12 124 2 3 43 -18
91 -47 48 -28 126 -74 175 -101 l87 -50 -2 -229 -3 -229 -90 -52 c-49 -28
-136 -77 -193 -109 l-102 -58 -173 98 c-94 54 -174 99 -176 101 -3 2 1 9 7 15
7 7 12 27 12 46 0 35 1 35 -47 15 -10 -4 -13 40 -13 200 l0 204 58 32 c58 32
102 56 180 101 38 21 42 27 42 62 0 21 -2 38 -5 38 -3 0 -22 -11 -43 -24 -20
-13 -97 -57 -169 -97 l-133 -74 0 -267 0 -266 78 -45 c42 -24 146 -84 230
-132 l152 -87 113 64 c61 36 165 95 230 132 l117 68 0 268 c0 242 -2 268 -17
274 -9 4 -58 31 -107 60 -325 190 -341 198 -359 179z"/>
<path d="M1639 757 c-54 -29 -79 -77 -82 -156 -1 -64 23 -116 69 -146 30 -20
117 -30 168 -21 31 6 36 11 36 35 0 28 0 28 -44 18 -94 -21 -155 16 -164 101
-5 55 15 104 49 123 13 6 51 9 91 7 69 -4 69 -4 66 21 -3 29 -28 38 -99 40
-30 1 -61 -7 -90 -22z"/>
<path d="M3180 605 l0 -176 122 3 c117 3 121 4 124 26 4 21 2 22 -87 22 l-90
0 3 48 3 47 75 0 c73 0 75 1 75 25 0 24 -2 25 -77 28 l-78 3 0 44 0 44 88 3
c85 3 87 3 87 28 l0 25 -123 3 -122 3 0 -176z"/>
<path d="M2718 739 c-10 -5 -18 -21 -18 -34 0 -16 -6 -25 -15 -25 -9 0 -15 -9
-15 -25 0 -15 6 -25 14 -25 10 0 15 -20 18 -81 4 -97 21 -119 94 -119 41 0 44
2 44 26 0 17 -4 24 -12 21 -7 -2 -23 -1 -35 4 -21 8 -23 15 -23 79 l0 70 30 0
c25 0 30 4 30 25 0 21 -5 25 -30 25 -28 0 -30 3 -30 35 0 37 -17 45 -52 24z"/>
<path d="M2487 676 c-20 -8 -40 -10 -43 -5 -3 5 -18 9 -35 9 l-29 0 0 -180 0
-180 35 0 35 0 0 60 0 59 50 -6 c95 -11 143 33 142 133 0 65 -14 92 -57 110
-41 17 -49 17 -98 0z m73 -56 c26 -26 27 -89 2 -121 -14 -17 -28 -22 -56 -21
-20 1 -41 4 -46 7 -6 4 -10 35 -10 70 0 50 4 66 18 74 28 17 71 12 92 -9z"/>
<path d="M2941 677 c-63 -22 -91 -91 -71 -168 16 -59 57 -81 139 -76 57 3 67
7 92 35 24 26 29 41 29 82 0 62 -12 92 -44 113 -35 23 -103 30 -145 14z m113
-69 c20 -28 21 -78 2 -103 -20 -27 -92 -27 -113 0 -18 24 -12 103 8 116 28 18
87 10 103 -13z"/>
<path d="M3853 675 c-14 -10 -24 -12 -28 -5 -3 5 -20 10 -36 10 l-29 0 2 -182
3 -183 30 0 c30 0 30 1 33 61 l3 62 62 -5 c56 -5 66 -3 90 18 15 14 32 44 39
70 16 66 -9 135 -58 155 -43 18 -84 18 -111 -1z m79 -52 c22 -19 24 -99 4
-125 -15 -21 -76 -24 -94 -6 -7 7 -12 38 -12 70 0 44 4 59 18 67 26 16 63 13
84 -6z"/>
<path d="M4125 676 c-38 -17 -50 -31 -65 -83 -11 -36 -11 -49 4 -88 24 -61 58
-78 143 -73 52 3 68 9 90 30 34 34 43 110 18 161 -28 60 -117 85 -190 53z
m116 -67 c17 -17 20 -29 16 -61 -3 -22 -10 -45 -16 -51 -15 -15 -76 -14 -95 2
-21 18 -21 94 0 115 22 23 70 20 95 -5z"/>
<path d="M1872 558 l3 -123 30 0 30 0 5 90 5 90 43 13 c30 10 42 19 42 33 0
22 -29 26 -62 8 -14 -8 -23 -8 -31 0 -6 6 -24 11 -39 11 l-29 0 3 -122z"/>
<path d="M2074 648 c8 -18 33 -75 57 -125 42 -90 42 -93 24 -113 -10 -11 -31
-20 -47 -20 -23 0 -28 -4 -28 -25 0 -23 4 -25 46 -25 40 0 51 5 76 33 17 19
56 94 88 168 l57 134 -29 3 c-17 2 -32 1 -35 -1 -2 -3 -19 -39 -37 -81 -19
-43 -37 -77 -41 -77 -5 0 -24 36 -43 80 -33 79 -35 81 -68 81 l-34 0 14 -32z"/>
<path d="M3505 621 c50 -66 50 -64 33 -83 -24 -25 -78 -97 -78 -102 0 -3 15
-6 34 -6 28 0 40 7 66 40 l32 40 29 -40 c25 -34 35 -40 65 -40 20 0 34 4 32 8
-1 4 -43 60 -92 125 -87 113 -91 117 -128 117 l-38 0 45 -59z"/>
<path d="M3627 655 l-18 -25 34 0 c20 0 41 7 50 18 24 26 21 32 -15 32 -23 -1
-38 -8 -51 -25z"/>
</g>
</svg>
