<svg width="43" height="28" viewBox="0 0 43 28" fill="none" xmlns="http://www.w3.org/2000/svg">
<g clip-path="url(#clip0_283_428)">
<path d="M42.7031 0H0.703125V28H42.7031V0Z" fill="#F76003"/>
<path d="M42.7031 9.33301H0.703125V18.6663H42.7031V9.33301Z" fill="white"/>
<path d="M42.7031 18.667H0.703125V28.0003H42.7031V18.667Z" fill="#007800"/>
<path d="M21.7031 17.7333C23.7649 17.7333 25.4364 16.0618 25.4364 13.9999C25.4364 11.9381 23.7649 10.2666 21.7031 10.2666C19.6412 10.2666 17.9697 11.9381 17.9697 13.9999C17.9697 16.0618 19.6412 17.7333 21.7031 17.7333Z" fill="#000088"/>
<path d="M21.7034 17.2667C23.5076 17.2667 24.9701 15.8042 24.9701 14.0001C24.9701 12.1959 23.5076 10.7334 21.7034 10.7334C19.8993 10.7334 18.4368 12.1959 18.4368 14.0001C18.4368 15.8042 19.8993 17.2667 21.7034 17.2667Z" fill="white"/>
<path d="M21.7035 14.6533C22.0643 14.6533 22.3568 14.3608 22.3568 14C22.3568 13.6392 22.0643 13.3467 21.7035 13.3467C21.3427 13.3467 21.0502 13.6392 21.0502 14C21.0502 14.3608 21.3427 14.6533 21.7035 14.6533Z" fill="#000088"/>
<path d="M24.9415 14.5903C25.0317 14.5903 25.1049 14.5172 25.1049 14.427C25.1049 14.3368 25.0317 14.2637 24.9415 14.2637C24.8513 14.2637 24.7782 14.3368 24.7782 14.427C24.7782 14.5172 24.8513 14.5903 24.9415 14.5903Z" fill="#000088"/>
<path d="M21.7026 17.2674L21.8146 15.3074L21.7026 14.374L21.5906 15.3074L21.7026 17.2674Z" fill="#000088"/>
<path d="M24.7218 15.4146C24.812 15.4146 24.8851 15.3414 24.8851 15.2512C24.8851 15.161 24.812 15.0879 24.7218 15.0879C24.6316 15.0879 24.5585 15.161 24.5585 15.2512C24.5585 15.3414 24.6316 15.4146 24.7218 15.4146Z" fill="#000088"/>
<path d="M20.8579 17.156L21.4736 15.2919L21.6068 14.3613L21.2571 15.234L20.8579 17.156Z" fill="#000088"/>
<path d="M24.2957 16.1519C24.3859 16.1519 24.459 16.0787 24.459 15.9885C24.459 15.8983 24.3859 15.8252 24.2957 15.8252C24.2055 15.8252 24.1323 15.8983 24.1323 15.9885C24.1323 16.0787 24.2055 16.1519 24.2957 16.1519Z" fill="#000088"/>
<path d="M20.0709 16.828L21.148 15.1865L21.5176 14.3223L20.9539 15.0745L20.0709 16.828Z" fill="#000088"/>
<path d="M23.6919 16.7544C23.7821 16.7544 23.8552 16.6813 23.8552 16.5911C23.8552 16.5009 23.7821 16.4277 23.6919 16.4277C23.6017 16.4277 23.5286 16.5009 23.5286 16.5911C23.5286 16.6813 23.6017 16.7544 23.6919 16.7544Z" fill="#000088"/>
<path d="M19.3933 16.3102L20.8586 15.0035L21.4392 14.2646L20.7003 14.8452L19.3933 16.3102Z" fill="#000088"/>
<path d="M22.9534 17.1821C23.0436 17.1821 23.1167 17.109 23.1167 17.0188C23.1167 16.9286 23.0436 16.8555 22.9534 16.8555C22.8632 16.8555 22.79 16.9286 22.79 17.0188C22.79 17.109 22.8632 17.1821 22.9534 17.1821Z" fill="#000088"/>
<path d="M18.8744 15.6342L20.6278 14.7512L21.3801 14.1875L20.5158 14.5571L18.8744 15.6342Z" fill="#000088"/>
<path d="M22.1298 17.4019C22.22 17.4019 22.2931 17.3287 22.2931 17.2385C22.2931 17.1483 22.22 17.0752 22.1298 17.0752C22.0396 17.0752 21.9664 17.1483 21.9664 17.2385C21.9664 17.3287 22.0396 17.4019 22.1298 17.4019Z" fill="#000088"/>
<path d="M18.5476 14.8455L20.4697 14.4464L21.3408 14.0967L20.4102 14.2298L18.5476 14.8455Z" fill="#000088"/>
<path d="M21.2769 17.4019C21.3671 17.4019 21.4402 17.3287 21.4402 17.2385C21.4402 17.1483 21.3671 17.0752 21.2769 17.0752C21.1867 17.0752 21.1135 17.1483 21.1135 17.2385C21.1135 17.3287 21.1867 17.4019 21.2769 17.4019Z" fill="#000088"/>
<path d="M18.4373 13.9997L20.3973 14.1117L21.3306 13.9997L20.3973 13.8877L18.4373 13.9997Z" fill="#000088"/>
<path d="M20.4533 17.1812C20.5435 17.1812 20.6166 17.108 20.6166 17.0178C20.6166 16.9276 20.5435 16.8545 20.4533 16.8545C20.363 16.8545 20.2899 16.9276 20.2899 17.0178C20.2899 17.108 20.363 17.1812 20.4533 17.1812Z" fill="#000088"/>
<path d="M18.5477 13.1543L20.4119 13.77L21.3424 13.9031L20.4713 13.5535L18.5477 13.1543Z" fill="#000088"/>
<path d="M19.7142 16.7564C19.8044 16.7564 19.8776 16.6832 19.8776 16.593C19.8776 16.5028 19.8044 16.4297 19.7142 16.4297C19.624 16.4297 19.5509 16.5028 19.5509 16.593C19.5509 16.6832 19.624 16.7564 19.7142 16.7564Z" fill="#000088"/>
<path d="M18.874 12.3682L20.5154 13.4452L21.3797 13.8148L20.6274 13.2511L18.874 12.3682Z" fill="#000088"/>
<path d="M19.1118 16.1538C19.202 16.1538 19.2752 16.0807 19.2752 15.9905C19.2752 15.9003 19.202 15.8271 19.1118 15.8271C19.0216 15.8271 18.9485 15.9003 18.9485 15.9905C18.9485 16.0807 19.0216 16.1538 19.1118 16.1538Z" fill="#000088"/>
<path d="M19.3932 11.6914L20.6999 13.1567L21.4387 13.7373L20.8582 12.9984L19.3932 11.6914Z" fill="#000088"/>
<path d="M18.6851 15.4155C18.7753 15.4155 18.8484 15.3424 18.8484 15.2522C18.8484 15.162 18.7753 15.0889 18.6851 15.0889C18.5949 15.0889 18.5217 15.162 18.5217 15.2522C18.5217 15.3424 18.5949 15.4155 18.6851 15.4155Z" fill="#000088"/>
<path d="M20.0693 11.1729L20.9523 12.9263L21.516 13.6785L21.1464 12.8143L20.0693 11.1729Z" fill="#000088"/>
<path d="M18.4644 14.5913C18.5546 14.5913 18.6277 14.5182 18.6277 14.428C18.6277 14.3378 18.5546 14.2646 18.4644 14.2646C18.3742 14.2646 18.301 14.3378 18.301 14.428C18.301 14.5182 18.3742 14.5913 18.4644 14.5913Z" fill="#000088"/>
<path d="M20.8567 10.8457L21.2558 12.7677L21.6055 13.6404L21.4724 12.7099L20.8567 10.8457Z" fill="#000088"/>
<path d="M18.4647 13.7368C18.5549 13.7368 18.6281 13.6637 18.6281 13.5735C18.6281 13.4833 18.5549 13.4102 18.4647 13.4102C18.3745 13.4102 18.3014 13.4833 18.3014 13.5735C18.3014 13.6637 18.3745 13.7368 18.4647 13.7368Z" fill="#000088"/>
<path d="M21.7033 10.7334L21.5913 12.6934L21.7033 13.6267L21.8153 12.6934L21.7033 10.7334Z" fill="#000088"/>
<path d="M18.6854 12.9136C18.7756 12.9136 18.8488 12.8405 18.8488 12.7502C18.8488 12.66 18.7756 12.5869 18.6854 12.5869C18.5952 12.5869 18.5221 12.66 18.5221 12.7502C18.5221 12.8405 18.5952 12.9136 18.6854 12.9136Z" fill="#000088"/>
<path d="M22.5491 10.8447L21.9334 12.7089L21.8003 13.6394L22.15 12.7668L22.5491 10.8447Z" fill="#000088"/>
<path d="M19.1117 12.1743C19.2019 12.1743 19.275 12.1012 19.275 12.011C19.275 11.9208 19.2019 11.8477 19.1117 11.8477C19.0215 11.8477 18.9484 11.9208 18.9484 12.011C18.9484 12.1012 19.0215 12.1743 19.1117 12.1743Z" fill="#000088"/>
<path d="M23.3366 11.1709L22.2595 12.8123L21.8899 13.6766L22.4536 12.9243L23.3366 11.1709Z" fill="#000088"/>
<path d="M19.7146 11.5718C19.8048 11.5718 19.8779 11.4987 19.8779 11.4085C19.8779 11.3182 19.8048 11.2451 19.7146 11.2451C19.6244 11.2451 19.5513 11.3182 19.5513 11.4085C19.5513 11.4987 19.6244 11.5718 19.7146 11.5718Z" fill="#000088"/>
<path d="M24.0129 11.6895L22.5476 12.9961L21.967 13.735L22.7059 13.1545L24.0129 11.6895Z" fill="#000088"/>
<path d="M20.4531 11.145C20.5433 11.145 20.6165 11.0719 20.6165 10.9817C20.6165 10.8915 20.5433 10.8184 20.4531 10.8184C20.3629 10.8184 20.2898 10.8915 20.2898 10.9817C20.2898 11.0719 20.3629 11.145 20.4531 11.145Z" fill="#000088"/>
<path d="M24.5316 12.3652L22.7781 13.2482L22.0259 13.8119L22.8901 13.4423L24.5316 12.3652Z" fill="#000088"/>
<path d="M21.2765 10.9253C21.3667 10.9253 21.4398 10.8522 21.4398 10.762C21.4398 10.6718 21.3667 10.5986 21.2765 10.5986C21.1863 10.5986 21.1132 10.6718 21.1132 10.762C21.1132 10.8522 21.1863 10.9253 21.2765 10.9253Z" fill="#000088"/>
<path d="M24.858 13.1533L22.9359 13.5525L22.0648 13.9022L22.9954 13.769L24.858 13.1533Z" fill="#000088"/>
<path d="M22.1298 10.9253C22.22 10.9253 22.2931 10.8522 22.2931 10.762C22.2931 10.6718 22.22 10.5986 22.1298 10.5986C22.0396 10.5986 21.9664 10.6718 21.9664 10.762C21.9664 10.8522 22.0396 10.9253 22.1298 10.9253Z" fill="#000088"/>
<path d="M24.9699 14.0007L23.0099 13.8887L22.0765 14.0007L23.0099 14.1127L24.9699 14.0007Z" fill="#000088"/>
<path d="M22.9537 11.145C23.0439 11.145 23.1171 11.0719 23.1171 10.9817C23.1171 10.8915 23.0439 10.8184 22.9537 10.8184C22.8635 10.8184 22.7904 10.8915 22.7904 10.9817C22.7904 11.0719 22.8635 11.145 22.9537 11.145Z" fill="#000088"/>
<path d="M24.8589 14.8445L22.9947 14.2289L22.0642 14.0957L22.9353 14.4454L24.8589 14.8445Z" fill="#000088"/>
<path d="M23.6895 11.5708C23.7797 11.5708 23.8528 11.4977 23.8528 11.4075C23.8528 11.3173 23.7797 11.2441 23.6895 11.2441C23.5992 11.2441 23.5261 11.3173 23.5261 11.4075C23.5261 11.4977 23.5992 11.5708 23.6895 11.5708Z" fill="#000088"/>
<path d="M24.5302 15.6322L22.8888 14.5551L22.0245 14.1855L22.7768 14.7493L24.5302 15.6322Z" fill="#000088"/>
<path d="M24.2932 12.1743C24.3834 12.1743 24.4565 12.1012 24.4565 12.011C24.4565 11.9208 24.3834 11.8477 24.2932 11.8477C24.203 11.8477 24.1299 11.9208 24.1299 12.011C24.1299 12.1012 24.203 12.1743 24.2932 12.1743Z" fill="#000088"/>
<path d="M24.0113 16.3095L22.7046 14.8442L21.9657 14.2637L22.5462 15.0026L24.0113 16.3095Z" fill="#000088"/>
<path d="M24.7217 12.9136C24.8119 12.9136 24.885 12.8405 24.885 12.7502C24.885 12.66 24.8119 12.5869 24.7217 12.5869C24.6315 12.5869 24.5583 12.66 24.5583 12.7502C24.5583 12.8405 24.6315 12.9136 24.7217 12.9136Z" fill="#000088"/>
<path d="M23.3369 16.8289L22.454 15.0755L21.8903 14.3232L22.2599 15.1875L23.3369 16.8289Z" fill="#000088"/>
<path d="M24.9424 13.7378C25.0326 13.7378 25.1057 13.6647 25.1057 13.5745C25.1057 13.4843 25.0326 13.4111 24.9424 13.4111C24.8522 13.4111 24.7791 13.4843 24.7791 13.5745C24.7791 13.6647 24.8522 13.7378 24.9424 13.7378Z" fill="#000088"/>
<path d="M22.5493 17.156L22.1501 15.234L21.8004 14.3613L21.9336 15.2919L22.5493 17.156Z" fill="#000088"/>
</g>
<defs>
<clipPath id="clip0_283_428">
<rect width="42" height="28" fill="white" transform="translate(0.703125)"/>
</clipPath>
</defs>
</svg>
