<svg width="29" height="27" viewBox="0 0 29 27" fill="none" xmlns="http://www.w3.org/2000/svg">
<path d="M25.9394 15.3329C27.5187 15.3329 28.3084 16.1225 28.3084 17.7018V24.1242C28.3084 25.7035 27.5187 26.4931 25.9394 26.4931H19.8329C18.2536 26.4931 17.4639 25.7035 17.4639 24.1242V17.7018C17.4639 14.0168 17.85 10.8056 18.6221 8.06814C19.4293 5.29561 20.991 2.87404 23.3073 0.80342C24.0794 0.13661 24.7287 0.0488724 25.2551 0.540206L27.624 2.75121C28.1504 3.24254 28.0276 3.83916 27.2555 4.54106C26.0623 5.59392 25.0796 7.12056 24.3075 9.12099C23.5705 11.0863 23.202 13.1569 23.202 15.3329H25.9394ZM8.5673 15.3329C10.1466 15.3329 10.9362 16.1225 10.9362 17.7018V24.1242C10.9362 25.7035 10.1466 26.4931 8.5673 26.4931H2.46073C0.88144 26.4931 0.0917969 25.7035 0.0917969 24.1242V17.7018C0.0917969 14.0168 0.477845 10.8056 1.24994 8.06814C2.05713 5.29561 3.61887 2.87404 5.93515 0.80342C6.70725 0.13661 7.35651 0.0488724 7.88294 0.540206L10.2519 2.75121C10.7783 3.24254 10.6555 3.83916 9.88337 4.54106C8.69013 5.59392 7.70746 7.12056 6.93537 9.12099C6.19837 11.0863 5.82987 13.1569 5.82987 15.3329H8.5673Z" fill="#2799F0"/>
</svg>
