<?xml version="1.0" standalone="no"?>
<!DOCTYPE svg PUBLIC "-//W3C//DTD SVG 20010904//EN"
 "http://www.w3.org/TR/2001/REC-SVG-20010904/DTD/svg10.dtd">
<svg version="1.0" xmlns="http://www.w3.org/2000/svg"
 width="1200.000000pt" height="1200.000000pt" viewBox="0 0 1200.000000 1200.000000"
 preserveAspectRatio="xMidYMid meet">

<g transform="translate(0.000000,1200.000000) scale(0.100000,-0.100000)"
fill="#000000" stroke="none">
<path d="M6000 10950 l0 -150 -150 0 -150 0 0 -150 0 -150 -150 0 -150 0 0
150 0 150 -600 0 -600 0 0 -150 0 -150 -150 0 -150 0 0 -600 0 -600 150 0 150
0 0 -300 0 -300 150 0 150 0 0 -150 0 -150 150 0 150 0 0 -150 0 -150 150 0
150 0 0 -150 0 -150 150 0 150 0 0 -150 0 -150 150 0 150 0 0 -150 0 -150
-900 0 -900 0 0 -150 0 -150 -300 0 -300 0 0 -150 0 -150 -150 0 -150 0 0
-150 0 -150 -150 0 -150 0 0 -150 0 -150 -150 0 -150 0 0 -300 0 -300 -150 0
-150 0 0 -600 0 -600 -300 0 -300 0 0 -150 0 -150 -150 0 -150 0 0 -450 0
-450 150 0 150 0 0 -150 0 -150 300 0 300 0 0 150 0 150 150 0 150 0 0 -150 0
-150 150 0 150 0 0 -150 0 -150 150 0 150 0 0 -150 0 -150 150 0 150 0 0 -300
0 -300 150 0 150 0 0 -150 0 -150 2250 0 2250 0 0 150 0 150 150 0 150 0 0
450 0 450 -150 0 -150 0 0 150 0 150 300 0 300 0 0 150 0 150 450 0 450 0 0
-150 0 -150 150 0 150 0 0 150 0 150 150 0 150 0 0 150 0 150 -150 0 -150 0 0
300 0 300 -150 0 -150 0 0 450 0 450 150 0 150 0 0 150 0 150 150 0 150 0 0
450 0 450 -150 0 -150 0 0 450 0 450 -150 0 -150 0 0 300 0 300 -150 0 -150 0
0 150 0 150 -150 0 -150 0 0 150 0 150 -300 0 -300 0 0 750 0 750 -150 0 -150
0 0 300 0 300 -150 0 -150 0 0 150 0 150 -150 0 -150 0 0 150 0 150 -150 0
-150 0 0 150 0 150 -600 0 -600 0 0 -150z m1200 -300 l0 -150 150 0 150 0 0
-150 0 -150 150 0 150 0 0 -300 0 -300 150 0 150 0 0 -600 0 -600 -450 0 -450
0 0 150 0 150 -150 0 -150 0 0 -300 0 -300 750 0 750 0 0 -150 0 -150 300 0
300 0 0 -150 0 -150 150 0 150 0 0 -300 0 -300 150 0 150 0 0 -450 0 -450 150
0 150 0 0 -450 0 -450 -450 0 -450 0 0 -150 0 -150 150 0 150 0 0 -150 0 -150
-300 0 -300 0 0 -150 0 -150 300 0 300 0 0 -300 0 -300 150 0 150 0 0 -150 0
-150 150 0 150 0 0 -150 0 -150 -150 0 -150 0 0 150 0 150 -300 0 -300 0 0
150 0 150 -150 0 -150 0 0 -300 0 -300 -450 0 -450 0 0 -150 0 -150 -600 0
-600 0 0 -150 0 -150 750 0 750 0 0 -150 0 -150 -750 0 -750 0 0 -150 0 -150
750 0 750 0 0 -150 0 -150 -2250 0 -2250 0 0 150 0 150 150 0 150 0 0 150 0
150 -300 0 -300 0 0 150 0 150 -150 0 -150 0 0 150 0 150 -150 0 -150 0 0 300
0 300 -150 0 -150 0 0 1050 0 1050 150 0 150 0 0 300 0 300 150 0 150 0 0 150
0 150 150 0 150 0 0 150 0 150 300 0 300 0 0 150 0 150 600 0 600 0 0 -750 0
-750 150 0 150 0 0 600 0 600 150 0 150 0 0 300 0 300 150 0 150 0 0 300 0
300 -300 0 -300 0 0 150 0 150 -150 0 -150 0 0 150 0 150 -150 0 -150 0 0 150
0 150 -150 0 -150 0 0 300 0 300 -150 0 -150 0 0 600 0 600 600 0 600 0 0
-150 0 -150 150 0 150 0 0 -150 0 -150 150 0 150 0 0 450 0 450 600 0 600 0 0
-150z m-5100 -7200 l0 -450 -300 0 -300 0 0 450 0 450 300 0 300 0 0 -450z"/>
<path d="M6000 9750 l0 -150 150 0 150 0 0 -150 0 -150 150 0 150 0 0 -300 0
-300 150 0 150 0 0 300 0 300 -150 0 -150 0 0 150 0 150 -150 0 -150 0 0 150
0 150 -150 0 -150 0 0 -150z"/>
<path d="M7500 5400 l0 -300 300 0 300 0 0 300 0 300 -300 0 -300 0 0 -300z"/>
<path d="M5400 5250 l0 -150 150 0 150 0 0 -150 0 -150 150 0 150 0 0 -150 0
-150 150 0 150 0 0 -150 0 -150 300 0 300 0 0 -150 0 -150 600 0 600 0 0 -150
0 -150 -300 0 -300 0 0 -150 0 -150 300 0 300 0 0 150 0 150 300 0 300 0 0
300 0 300 -900 0 -900 0 0 150 0 150 -300 0 -300 0 0 150 0 150 -150 0 -150 0
0 150 0 150 -150 0 -150 0 0 150 0 150 -150 0 -150 0 0 -150z"/>
<path d="M6300 2250 l0 -150 150 0 150 0 0 150 0 150 -150 0 -150 0 0 -150z"/>
</g>
</svg>
