<svg width="103" height="103" viewBox="0 0 103 103" fill="none" xmlns="http://www.w3.org/2000/svg">
<path d="M51.5488 0.720169C44.5168 0.720169 37.916 2.04697 31.7464 4.70056C25.5105 7.35416 20.0872 10.9863 15.4766 15.5969C10.8659 20.2075 7.23384 25.6308 4.58024 31.8667C1.92665 38.0363 0.599854 44.6371 0.599854 51.6692C0.599854 58.7012 1.92665 65.302 4.58024 71.4716C7.23384 77.7076 10.8659 83.1308 15.4766 87.7415C20.0872 92.3521 25.5105 95.9842 31.7464 98.6378C37.916 101.291 44.5168 102.618 51.5488 102.618C58.5809 102.618 65.1817 101.291 71.3513 98.6378C77.5872 95.9842 83.0105 92.3521 87.6211 87.7415C92.2317 83.1308 95.8638 77.7076 98.5174 71.4716C101.171 65.302 102.498 58.7012 102.498 51.6692C102.498 44.6371 101.171 38.0363 98.5174 31.8667C95.8638 25.6308 92.2317 20.2075 87.6211 15.5969C83.0105 10.9863 77.5872 7.35416 71.3513 4.70056C65.1817 2.04697 58.5809 0.720169 51.5488 0.720169ZM33.7366 80.726C31.8791 80.6597 30.0216 80.6265 28.1641 80.6265C26.3065 80.6265 24.449 80.6265 22.5915 80.6265C22.1935 80.6928 21.9281 80.6597 21.7954 80.527C21.6627 80.3943 21.5964 80.1621 21.5964 79.8304C21.5964 76.7125 21.5964 73.5945 21.5964 70.4765C21.5964 67.3585 21.5964 64.2406 21.5964 61.1226C21.5964 58.0046 21.5964 54.8867 21.5964 51.7687C21.5964 48.6507 21.5964 45.5327 21.5964 42.4148C21.5964 42.0831 21.6627 41.8509 21.7954 41.7182C21.9281 41.5855 22.1603 41.5192 22.492 41.5192C24.3495 41.5192 26.2236 41.5192 28.1143 41.5192C30.005 41.5192 31.9123 41.5192 33.8361 41.5192C34.1678 41.5192 34.4 41.5855 34.5327 41.7182C34.6654 41.8509 34.7317 42.0831 34.7317 42.4148C34.6654 45.5327 34.6322 48.6507 34.6322 51.7687C34.6322 54.8867 34.6322 58.0046 34.6322 61.1226C34.6322 64.1742 34.6322 67.259 34.6322 70.377C34.6322 73.495 34.6654 76.5798 34.7317 79.6314C34.7317 80.0294 34.6654 80.3114 34.5327 80.4772C34.4 80.6431 34.1346 80.726 33.7366 80.726ZM35.3288 31.2697C34.8644 32.9945 33.8195 34.3047 32.1942 35.2003C30.5689 36.0959 28.6948 36.3778 26.5719 36.0461C24.3827 35.7144 22.7574 34.6198 21.6959 32.7623C20.6345 30.9048 20.5018 28.9478 21.2979 26.8912C21.8286 25.5644 22.7076 24.5196 23.9349 23.7567C25.1622 22.9938 26.6051 22.6123 28.2636 22.6123C30.7845 22.6787 32.7415 23.5577 34.1346 25.2493C35.5278 26.941 35.9258 28.9478 35.3288 31.2697ZM80.6057 80.726C78.7482 80.6597 76.8907 80.6265 75.0331 80.6265C73.1756 80.6265 71.3513 80.6597 69.5601 80.726C69.0957 80.726 68.7972 80.6431 68.6645 80.4772C68.5318 80.3114 68.4655 80.0294 68.4655 79.6314C68.5318 76.3808 68.565 73.1135 68.565 69.8297C68.565 66.5459 68.565 63.2786 68.565 60.028C68.565 59.2319 68.5153 58.469 68.4157 57.7393C68.3162 57.0095 68.167 56.2798 67.9679 55.55C67.3046 53.2282 65.8782 51.7355 63.689 51.0721C61.4998 50.4087 59.4764 50.8399 57.6189 52.3657C56.6238 53.2282 55.9107 54.2067 55.4795 55.3013C55.0483 56.3959 54.8327 57.5734 54.8327 58.8339C54.8327 61.9518 54.8327 65.0532 54.8327 68.138C54.8327 71.2228 54.8327 74.3242 54.8327 77.4422C54.8327 77.8402 54.8327 78.2383 54.8327 78.6363C54.8327 79.0344 54.8327 79.4324 54.8327 79.8304C54.899 80.1621 54.8492 80.3943 54.6834 80.527C54.5175 80.6597 54.2688 80.6928 53.9371 80.6265C52.0796 80.6265 50.222 80.6265 48.3645 80.6265C46.507 80.6265 44.6163 80.6597 42.6925 80.726C42.3608 80.726 42.1286 80.6597 41.9959 80.527C41.8632 80.3943 41.7969 80.1621 41.7969 79.8304C41.8632 77.0442 41.8964 74.2579 41.8964 71.4716C41.8964 68.6853 41.8964 65.8991 41.8964 63.1128C41.8964 59.6631 41.8964 56.2134 41.8964 52.7638C41.8964 49.3141 41.8632 45.8976 41.7969 42.5143C41.7969 42.1162 41.8632 41.8509 41.9959 41.7182C42.1286 41.5855 42.3939 41.5192 42.792 41.5192C44.6495 41.5192 46.5236 41.5192 48.4143 41.5192C50.305 41.5192 52.1791 41.5192 54.0366 41.5192C54.3683 41.5192 54.5839 41.5855 54.6834 41.7182C54.7829 41.8509 54.8327 42.0831 54.8327 42.4148C54.8327 43.0782 54.8327 43.7747 54.8327 44.5045C54.8327 45.2342 54.8327 46.0303 54.8327 46.8927C54.9653 46.76 55.0648 46.6605 55.1312 46.5942C55.1975 46.5278 55.2307 46.4615 55.2307 46.3951C56.9555 43.9406 59.0121 42.2821 61.4003 41.4197C63.7885 40.5572 66.409 40.3582 69.2616 40.8226C72.5786 41.3533 75.2653 42.7133 77.3219 44.9025C79.3784 47.0917 80.672 49.9775 81.2027 53.5599C81.3354 54.3559 81.4349 55.1852 81.5013 56.0476C81.5676 56.91 81.6008 57.7393 81.6008 58.5353C81.6008 62.0513 81.6008 65.5674 81.6008 69.0834C81.6008 72.5994 81.6008 76.1154 81.6008 79.6314C81.6008 80.0294 81.5344 80.3114 81.4018 80.4772C81.2691 80.6431 81.0037 80.726 80.6057 80.726Z" fill="#180018"/>
</svg>
