<svg width="86" height="70" viewBox="0 0 86 70" fill="none" xmlns="http://www.w3.org/2000/svg">
<path d="M85.3793 8.89582C83.7871 9.55922 82.1452 10.1231 80.4535 10.5875C78.7619 11.0519 77.0536 11.3836 75.3288 11.5826C77.12 10.5212 78.6789 9.16119 80.0057 7.50269C81.3325 5.84419 82.3276 4.01984 82.991 2.02966C81.2662 3.02475 79.4916 3.87058 77.6673 4.56715C75.8429 5.26372 73.9356 5.81102 71.9454 6.20906C70.3533 4.48422 68.4626 3.14085 66.2734 2.17892C64.0842 1.21699 61.7291 0.736023 59.2082 0.736023C54.3654 0.736023 50.2523 2.42769 46.869 5.81102C43.4857 9.19436 41.794 13.3074 41.794 18.1502C41.794 18.8136 41.8272 19.477 41.8935 20.1404C41.9599 20.8038 42.0594 21.4672 42.192 22.1306C38.6097 21.9316 35.1268 21.3677 31.7435 20.439C28.3602 19.5102 25.1427 18.2663 22.0911 16.7073C19.0394 15.1484 16.1868 13.2743 13.5332 11.085C10.8796 8.89582 8.49141 6.50759 6.36853 3.92033C5.57246 5.18079 4.9754 6.55735 4.57736 8.04999C4.17932 9.54264 3.9803 11.085 3.9803 12.6772C3.9803 15.6625 4.69345 18.4322 6.11976 20.9863C7.54607 23.5403 9.42017 25.5803 11.7421 27.1061C10.2826 27.1061 8.88945 26.9071 7.56265 26.5091C6.23585 26.111 4.9754 25.6135 3.78128 25.0164V25.2154C3.78128 29.4612 5.12466 33.1596 7.81142 36.3108C10.4982 39.4619 13.8318 41.4687 17.8122 42.3311C17.0824 42.5301 16.3361 42.6628 15.5732 42.7291C14.8103 42.7955 14.0308 42.8287 13.2347 42.8287C12.6376 42.8287 12.0738 42.8121 11.543 42.7789C11.0123 42.7457 10.4816 42.6628 9.95088 42.5301C11.0787 45.9798 13.1186 48.849 16.0707 51.1377C19.0229 53.4264 22.3896 54.604 26.171 54.6703C23.1857 56.9922 19.8687 58.8166 16.22 60.1434C12.5713 61.4701 8.69043 62.1335 4.57736 62.1335C3.84762 62.1335 3.15105 62.117 2.48765 62.0838C1.82426 62.0506 1.12769 61.9677 0.397949 61.835C4.24566 64.3559 8.42507 66.2964 12.9362 67.6563C17.4473 69.0163 22.1906 69.6963 27.1661 69.6963C35.1268 69.6963 42.192 68.2036 48.3616 65.2183C54.5312 62.1667 59.7223 58.2693 63.9349 53.526C68.1475 48.7827 71.3152 43.4589 73.4381 37.5546C75.6273 31.7167 76.7219 25.912 76.7219 20.1404C76.7219 19.7424 76.7053 19.3609 76.6722 18.9961C76.639 18.6312 76.6224 18.2829 76.6224 17.9512C78.3472 16.6908 79.9394 15.2976 81.3989 13.7718C82.8584 12.246 84.1852 10.6207 85.3793 8.89582Z" fill="#180018"/>
</svg>
