<svg width="99" height="69" viewBox="0 0 99 69" fill="none" xmlns="http://www.w3.org/2000/svg">
<path d="M97.8189 15.0662C97.8189 15.0662 97.537 13.7891 96.9731 11.2351C96.4092 8.68097 95.3975 6.67419 93.9381 5.21472C92.1469 3.29086 90.306 2.1465 88.4153 1.78163C86.5246 1.41676 85.1149 1.16798 84.1861 1.03531C80.7364 0.769951 77.0214 0.57093 73.041 0.438248C69.0606 0.305565 65.3456 0.206062 61.8959 0.139717C58.4463 0.0733795 55.5936 0.0402069 53.3381 0.0402069C51.0825 0.0402069 49.9548 0.0402069 49.9548 0.0402069C49.9548 0.0402069 48.7938 0.0402069 46.4719 0.0402069C44.2164 0.0402069 41.3638 0.0733795 37.9141 0.139717C34.4644 0.206062 30.7494 0.305565 26.769 0.438248C22.7886 0.57093 19.0736 0.769951 15.6239 1.03531C14.6951 1.16798 13.2854 1.41676 11.3947 1.78163C9.50405 2.1465 7.66312 3.29086 5.87195 5.21472C4.41247 6.67419 3.40079 8.68097 2.8369 11.2351C2.27301 13.7891 1.99107 15.0662 1.99107 15.0662C1.99107 15.0662 1.82522 16.6915 1.49352 19.9422C1.16182 23.1928 0.995972 26.7752 0.995972 30.6892V37.8539C0.995972 41.768 1.16182 45.4167 1.49352 48.8C1.82522 52.1833 1.99107 53.875 1.99107 53.875C1.99107 53.875 2.27301 55.1355 2.8369 57.6564C3.40079 60.1773 4.41247 62.1675 5.87195 63.627C7.66312 65.5508 9.62015 66.6952 11.743 67.06C13.8659 67.4249 15.4912 67.6737 16.619 67.8064C18.6092 67.939 21.4618 68.0386 25.1768 68.1049C28.8919 68.1712 32.5737 68.2376 36.2224 68.3039C39.8711 68.3703 43.0554 68.4034 45.7754 68.4034C48.5616 68.4698 49.9548 68.5029 49.9548 68.5029C49.9548 68.5029 51.0825 68.5029 53.3381 68.5029C55.5936 68.5029 58.4463 68.4698 61.8959 68.4034C65.3456 68.3371 69.0606 68.2376 73.041 68.1049C77.0214 67.9722 80.7364 67.7732 84.1861 67.5078C85.1149 67.3752 86.5246 67.1264 88.4153 66.7615C90.306 66.3966 92.1469 65.2523 93.9381 63.3284C95.3975 61.8026 96.4092 59.7792 96.9731 57.2583C97.537 54.7374 97.8189 53.477 97.8189 53.477C97.8189 53.477 97.9848 51.8516 98.3165 48.601C98.6482 45.3503 98.814 41.768 98.814 37.8539V30.6892C98.814 26.7752 98.6482 23.1928 98.3165 19.9422C97.9848 16.6915 97.8189 15.0662 97.8189 15.0662ZM39.8048 47.0088V19.5441L66.1749 33.2765L39.8048 47.0088Z" fill="#180018"/>
</svg>
