<svg width="103" height="103" viewBox="0 0 103 103" fill="none" xmlns="http://www.w3.org/2000/svg">
<path d="M51.643 0.720169C44.6109 0.720169 38.0101 2.04697 31.8405 4.70056C25.6046 7.35416 20.1813 10.9863 15.5707 15.5969C10.9601 20.2075 7.32795 25.6308 4.67436 31.8667C2.02077 38.0363 0.69397 44.6371 0.69397 51.6692C0.69397 58.7012 2.02077 65.302 4.67436 71.4716C7.32795 77.7076 10.9601 83.1308 15.5707 87.7415C20.1813 92.3521 25.6046 95.9842 31.8405 98.6378C38.0101 101.291 44.6109 102.618 51.643 102.618C58.675 102.618 65.2758 101.291 71.4454 98.6378C77.6813 95.9842 83.1046 92.3521 87.7152 87.7415C92.3259 83.1308 95.958 77.7076 98.6115 71.4716C101.265 65.302 102.592 58.7012 102.592 51.6692C102.592 44.6371 101.265 38.0363 98.6115 31.8667C95.958 25.6308 92.3259 20.2075 87.7152 15.5969C83.1046 10.9863 77.6813 7.35416 71.4454 4.70056C65.2758 2.04697 58.675 0.720169 51.643 0.720169ZM65.1763 31.7672C64.3139 31.7672 63.4514 31.7672 62.589 31.7672C61.7266 31.7672 60.8974 31.7672 60.1013 31.7672C58.9735 31.7672 58.0779 32.0492 57.4145 32.613C56.7511 33.1769 56.3863 34.0228 56.3199 35.1505C56.2536 36.0793 56.237 36.9915 56.2702 37.8871C56.3033 38.7827 56.2867 39.6617 56.2204 40.5241C56.2204 40.8558 56.3033 41.0382 56.4692 41.0714C56.635 41.1045 56.8175 41.1211 57.0165 41.1211C58.3433 41.1211 59.6369 41.1211 60.8974 41.1211C62.1578 41.1211 63.4514 41.1211 64.7782 41.1211C65.1099 41.1211 65.3587 41.1875 65.5246 41.3202C65.6904 41.4528 65.7402 41.7182 65.6738 42.1162C65.4748 43.5757 65.309 45.0518 65.1763 46.5444C65.0436 48.0371 64.9109 49.5463 64.7782 51.0721C64.7782 51.4038 64.6953 51.6194 64.5295 51.7189C64.3636 51.8184 64.1148 51.8682 63.7831 51.8682C62.788 51.8682 61.7929 51.8682 60.7979 51.8682C59.8028 51.8682 58.7745 51.8682 57.7131 51.8682C56.9833 51.8682 56.5853 51.8848 56.5189 51.9179C56.4526 51.9511 56.4194 52.3657 56.4194 53.1618C56.4194 57.8056 56.4194 62.466 56.4194 67.1429C56.4194 71.8199 56.4194 76.4803 56.4194 81.1241C56.4194 81.5884 56.3365 81.9035 56.1707 82.0694C56.0048 82.2352 55.6897 82.3182 55.2253 82.3182C53.5005 82.3182 51.7591 82.3182 50.001 82.3182C48.243 82.3182 46.5016 82.3182 44.7768 82.3182C44.3124 82.3182 44.0139 82.2352 43.8812 82.0694C43.7485 81.9035 43.6822 81.5884 43.6822 81.1241C43.6822 78.8022 43.6822 76.4637 43.6822 74.1086C43.6822 71.7536 43.6822 69.4151 43.6822 67.0932C43.6822 64.7049 43.6822 62.3167 43.6822 59.9285C43.6822 57.5402 43.6822 55.152 43.6822 52.7638C43.6822 52.3657 43.6158 52.0838 43.4832 51.9179C43.3505 51.7521 43.0851 51.7023 42.6871 51.7687C41.891 51.7687 41.1281 51.7687 40.3984 51.7687C39.6686 51.7687 38.9389 51.7687 38.2091 51.7687C37.8774 51.7687 37.6618 51.7189 37.5623 51.6194C37.4628 51.5199 37.4131 51.3043 37.4131 50.9726C37.4131 49.4468 37.4131 47.9541 37.4131 46.4947C37.4131 45.0352 37.4131 43.5425 37.4131 42.0167C37.4131 41.7514 37.4628 41.5689 37.5623 41.4694C37.6618 41.3699 37.8443 41.3202 38.1096 41.3202C38.9057 41.3202 39.6852 41.3036 40.4481 41.2704C41.211 41.2372 41.9573 41.2538 42.6871 41.3202C43.1515 41.3202 43.45 41.2372 43.5827 41.0714C43.7153 40.9055 43.7817 40.6236 43.7817 40.2255C43.7153 39.0978 43.6822 37.97 43.6822 36.8422C43.6822 35.7144 43.7153 34.5867 43.7817 33.4589C43.7817 32.0657 43.9807 30.7224 44.3787 29.4287C44.7768 28.1351 45.3738 26.9244 46.1699 25.7966C47.2314 24.4035 48.4752 23.3586 49.9015 22.6621C51.3278 21.9655 52.9034 21.584 54.6282 21.5177C56.4194 21.4514 58.194 21.4182 59.952 21.4182C61.71 21.4182 63.4514 21.4182 65.1763 21.4182C65.4416 21.4182 65.6241 21.468 65.7236 21.5675C65.8231 21.667 65.8728 21.8494 65.8728 22.1148C65.8065 23.5742 65.7733 25.0669 65.7733 26.5927C65.7733 28.1185 65.8065 29.6112 65.8728 31.0706C65.8728 31.336 65.8231 31.5184 65.7236 31.618C65.6241 31.7175 65.4416 31.7672 65.1763 31.7672Z" fill="#180018"/>
</svg>
