<svg width="102" height="73" viewBox="0 0 102 73" fill="none" xmlns="http://www.w3.org/2000/svg">
<path d="M78.895 7.24365C68.1836 7.24365 59.8685 14.1919 56.4935 25.6458C51.3466 17.9171 47.4316 8.63584 45.1577 0.814277H33.6152V30.7885C33.6068 36.7116 28.8016 41.5168 22.87 41.5252C16.9385 41.5168 12.1418 36.7074 12.1333 30.7885V0.810059H0.59082V30.7843C0.59082 43.0651 10.5935 53.1352 22.8743 53.1352C35.1635 53.1352 45.1619 43.0651 45.1619 30.7843V25.7682C47.3936 30.4341 50.1485 35.1676 53.4897 39.3483L46.4275 72.5288H58.2274L63.3447 48.4608C67.8292 51.3254 72.9846 53.1394 78.895 53.1394C91.5513 53.1394 101.841 42.8035 101.841 30.1683C101.841 17.5205 91.5513 7.24365 78.895 7.24365ZM78.895 41.5505C74.246 41.5505 69.888 39.5804 65.9266 36.3741L66.8885 31.8432L66.9222 31.666C67.7955 26.844 70.5039 18.7651 78.8992 18.7651C85.1936 18.7651 90.3025 23.874 90.3025 30.1557C90.2983 36.4374 85.1894 41.5505 78.895 41.5505Z" fill="#180018"/>
</svg>
