<svg width="88" height="89" viewBox="0 0 88 89" fill="none" xmlns="http://www.w3.org/2000/svg">
<path d="M58.6246 44.5651C58.6246 40.5834 57.1979 37.1658 54.3443 34.3122C51.4907 31.4586 48.0731 30.0318 44.0913 30.0318C40.0432 30.0318 36.609 31.4586 33.7886 34.3122C30.9682 37.1658 29.558 40.5834 29.558 44.5651C29.558 48.6132 30.9682 52.0475 33.7886 54.8679C36.609 57.6883 40.0432 59.0985 44.0913 59.0985C48.0731 59.0985 51.4907 57.6883 54.3443 54.8679C57.1979 52.0475 58.6246 48.6132 58.6246 44.5651ZM66.4886 44.5651C66.4886 47.6842 65.8913 50.6041 64.6968 53.325C63.5686 56.0458 61.9925 58.4183 59.9685 60.4423C57.9444 62.4663 55.572 64.0756 52.8511 65.2702C50.1303 66.3983 47.2104 66.9624 44.0913 66.9624C40.9723 66.9624 38.0524 66.3983 35.3315 65.2702C32.6107 64.0756 30.2382 62.4663 28.2142 60.4423C26.1901 58.4183 24.5809 56.0458 23.3863 53.325C22.2582 50.6041 21.6941 47.6842 21.6941 44.5651C21.6941 41.4461 22.2582 38.5262 23.3863 35.8053C24.5809 33.0845 26.1901 30.712 28.2142 28.688C30.2382 26.6639 32.6107 25.0878 35.3315 23.9597C38.0524 22.7652 40.9723 22.1679 44.0913 22.1679C47.2104 22.1679 50.1303 22.7652 52.8511 23.9597C55.572 25.0878 57.9444 26.6639 59.9685 28.688C61.9925 30.712 63.5686 33.0845 64.6968 35.8053C65.8913 38.5262 66.4886 41.4461 66.4886 44.5651ZM72.6602 21.272C72.6602 22.732 72.1459 23.9597 71.1173 24.9551C70.0887 25.9506 68.8444 26.4483 67.3845 26.4483C65.9245 26.4483 64.6968 25.9506 63.7014 24.9551C62.7059 23.9597 62.2082 22.732 62.2082 21.272C62.2082 19.8121 62.7059 18.5678 63.7014 17.5391C64.6968 16.5105 65.9245 15.9962 67.3845 15.9962C68.8444 15.9962 70.0887 16.5105 71.1173 17.5391C72.1459 18.5678 72.6602 19.8121 72.6602 21.272ZM44.0913 8.72957C42.4986 8.72957 40.541 8.72957 38.2183 8.72957C35.8292 8.6632 33.407 8.6798 30.9516 8.77934C28.4962 8.87888 26.1404 9.0282 23.8841 9.22728C21.6277 9.49273 19.7696 9.92409 18.3096 10.5213C17.3142 10.9195 16.4183 11.3675 15.622 11.8652C14.8256 12.3629 14.0625 13.0099 13.3325 13.8063C12.5361 14.6026 11.8891 15.3824 11.3914 16.1455C10.8937 16.9087 10.4457 17.788 10.0475 18.7834C9.45028 20.2434 9.01893 22.1015 8.75348 24.3579C8.48803 26.6142 8.32212 28.97 8.25576 31.4254C8.1894 33.8808 8.15622 36.3031 8.15622 38.6921C8.22258 41.0148 8.25576 42.9725 8.25576 44.5651C8.25576 46.1578 8.22258 48.1155 8.15622 50.4382C8.15622 52.8272 8.1894 55.2495 8.25576 57.7049C8.32212 60.1603 8.48803 62.5161 8.75348 64.7724C9.01893 67.0287 9.45028 68.8869 10.0475 70.3469C10.4457 71.3423 10.8937 72.2382 11.3914 73.0345C11.8891 73.8309 12.5361 74.594 13.3325 75.324C14.0625 76.1204 14.8256 76.7674 15.622 77.2651C16.4183 77.7628 17.3142 78.2108 18.3096 78.609C19.7696 79.2062 21.6277 79.6376 23.8841 79.903C26.1404 80.1685 28.4962 80.3344 30.9516 80.4007C33.407 80.4671 35.8292 80.5003 38.2183 80.5003C40.541 80.4339 42.4986 80.4007 44.0913 80.4007C45.684 80.4007 47.6417 80.4339 49.9644 80.5003C52.3534 80.5003 54.7756 80.4671 57.231 80.4007C59.6864 80.3344 62.0423 80.1685 64.2986 79.903C66.5549 79.6376 68.4131 79.2062 69.873 78.609C70.8685 78.2108 71.7478 77.7628 72.5109 77.2651C73.2741 76.7674 74.0539 76.1204 74.8502 75.324C75.6465 74.594 76.2936 73.8309 76.7913 73.0345C77.289 72.2382 77.737 71.3423 78.1351 70.3469C78.7324 68.8869 79.1637 67.0287 79.4292 64.7724C79.6283 62.5161 79.7776 60.1603 79.8771 57.7049C79.9767 55.2495 79.9933 52.8272 79.9269 50.4382C79.9269 48.1155 79.9269 46.1578 79.9269 44.5651C79.9269 42.9725 79.9269 41.0148 79.9269 38.6921C79.9933 36.3031 79.9767 33.8808 79.8771 31.4254C79.7776 28.97 79.6283 26.6142 79.4292 24.3579C79.1637 22.1015 78.7324 20.2434 78.1351 18.7834C77.737 17.788 77.289 16.9087 76.7913 16.1455C76.2936 15.3824 75.6465 14.6026 74.8502 13.8063C74.0539 13.0099 73.2741 12.3629 72.5109 11.8652C71.7478 11.3675 70.8685 10.9195 69.873 10.5213C68.4131 9.92409 66.5549 9.49273 64.2986 9.22728C62.0423 9.0282 59.6864 8.87888 57.231 8.77934C54.7756 8.6798 52.3534 8.6632 49.9644 8.72957C47.6417 8.72957 45.684 8.72957 44.0913 8.72957ZM87.7908 44.5651C87.7908 47.6178 87.7742 50.6373 87.741 53.6236C87.7079 56.6099 87.6249 59.5962 87.4922 62.5825C87.2931 66.0997 86.7124 69.4012 85.7502 72.487C84.7879 75.5729 83.0127 78.3767 80.4246 80.8984C77.8365 83.4866 75.0161 85.2784 71.9634 86.2738C68.9108 87.2692 65.6259 87.8333 62.1087 87.966C59.1224 88.1651 56.1195 88.2646 53.1 88.2646C50.0805 88.2646 47.0776 88.2646 44.0913 88.2646C41.0387 88.2646 38.0192 88.2646 35.0329 88.2646C32.0466 88.2646 29.0603 88.1651 26.074 87.966C22.5568 87.8333 19.2553 87.2692 16.1695 86.2738C13.0836 85.2784 10.2798 83.4866 7.75805 80.8984C5.16992 78.3767 3.37814 75.5729 2.38271 72.487C1.38728 69.4012 0.8232 66.0997 0.690475 62.5825C0.491389 59.5962 0.391846 56.6099 0.391846 53.6236C0.391846 50.6373 0.391846 47.6178 0.391846 44.5651C0.391846 41.5788 0.391846 38.576 0.391846 35.5565C0.391846 32.537 0.491389 29.5341 0.690475 26.5478C0.8232 23.0306 1.38728 19.7457 2.38271 16.693C3.37814 13.6404 5.16992 10.82 7.75805 8.23185C10.2798 5.64373 13.0836 3.86854 16.1695 2.90629C19.2553 1.94403 22.5568 1.36336 26.074 1.16428C29.0603 1.03155 32.0466 0.948601 35.0329 0.915419C38.0192 0.882238 41.0387 0.865648 44.0913 0.865648C47.0776 0.865648 50.0805 0.882238 53.1 0.915419C56.1195 0.948601 59.1224 1.03155 62.1087 1.16428C65.6259 1.36336 68.9108 1.94403 71.9634 2.90629C75.0161 3.86854 77.8365 5.64373 80.4246 8.23185C83.0127 10.82 84.7879 13.6404 85.7502 16.693C86.7124 19.7457 87.2931 23.0306 87.4922 26.5478C87.6249 29.5341 87.7079 32.537 87.741 35.5565C87.7742 38.576 87.7908 41.5788 87.7908 44.5651Z" fill="#180018"/>
</svg>
