<svg width="61" height="35" viewBox="0 0 61 35" fill="none" xmlns="http://www.w3.org/2000/svg">
<path d="M17.7948 34.7532C27.2687 34.7532 34.9488 27.0731 34.9488 17.5993C34.9488 8.1254 27.2687 0.445312 17.7948 0.445312C8.32096 0.445312 0.640869 8.1254 0.640869 17.5993C0.640869 27.0731 8.32096 34.7532 17.7948 34.7532Z" fill="#180018"/>
<path d="M44.6964 33.4509C48.9863 33.4509 52.4639 26.3103 52.4639 17.5018C52.4639 8.69338 48.9863 1.55273 44.6964 1.55273C40.4066 1.55273 36.929 8.69338 36.929 17.5018C36.929 26.3103 40.4066 33.4509 44.6964 33.4509Z" fill="#180018"/>
<path d="M57.8169 31.9158C59.4963 31.9158 60.8578 25.4623 60.8578 17.5016C60.8578 9.54086 59.4963 3.0874 57.8169 3.0874C56.1374 3.0874 54.7759 9.54086 54.7759 17.5016C54.7759 25.4623 56.1374 31.9158 57.8169 31.9158Z" fill="#180018"/>
</svg>
